<svg width="20" height="20" viewBox="0 0 20 20" fill="none" xmlns="http://www.w3.org/2000/svg">
<path d="M18.8639 10.1622L11.0968 17.5442C9.90192 18.6799 8.36558 19.1667 6.82924 19.1667C5.2929 19.1667 3.75656 18.5988 2.56163 17.5442C0.257125 15.354 0.257125 11.7035 2.56163 9.51327L10.414 2.05014C11.1822 1.32005 12.2918 0.833328 13.4014 0.833328C14.5109 0.833328 15.6205 1.23893 16.3887 2.05014C18.0957 3.67256 18.0957 6.18731 16.3887 7.80973L8.53628 15.2729C7.51206 16.2463 5.89037 16.2463 4.95149 15.2729C4.52473 14.8673 4.26868 14.2183 4.26868 13.5693C4.26868 12.9203 4.52473 12.2714 5.03684 11.8658L12.2918 4.9705C12.6332 4.64601 13.1453 4.64601 13.4867 4.9705C13.8281 5.29498 13.8281 5.78171 13.4867 6.10619L6.23177 13.0015C6.06107 13.1637 5.97572 13.326 5.97572 13.5693C5.97572 13.8127 6.06107 13.9749 6.23177 14.1372C6.57318 14.4616 7.0853 14.4616 7.4267 14.1372L15.2791 6.67404C16.3033 5.70058 16.3033 4.15929 15.2791 3.26696C14.3402 2.37463 12.6332 2.37463 11.6943 3.26696L3.84191 10.7301C2.13487 12.3525 2.13487 14.8673 3.84191 16.4897C5.54896 18.1121 8.19487 18.1121 9.90192 16.4897L17.7543 9.02654C18.0957 8.70206 18.6078 8.70206 18.9492 9.02654C19.2907 9.35103 19.2053 9.83775 18.8639 10.1622Z" fill="black"/>
<mask id="mask0" mask-type="alpha" maskUnits="userSpaceOnUse" x="0" y="0" width="20" height="20">
<path d="M18.8639 10.1622L11.0968 17.5442C9.90192 18.6799 8.36558 19.1667 6.82924 19.1667C5.2929 19.1667 3.75656 18.5988 2.56163 17.5442C0.257125 15.354 0.257125 11.7035 2.56163 9.51327L10.414 2.05014C11.1822 1.32005 12.2918 0.833328 13.4014 0.833328C14.5109 0.833328 15.6205 1.23893 16.3887 2.05014C18.0957 3.67256 18.0957 6.18731 16.3887 7.80973L8.53628 15.2729C7.51206 16.2463 5.89037 16.2463 4.95149 15.2729C4.52473 14.8673 4.26868 14.2183 4.26868 13.5693C4.26868 12.9203 4.52473 12.2714 5.03684 11.8658L12.2918 4.9705C12.6332 4.64601 13.1453 4.64601 13.4867 4.9705C13.8281 5.29498 13.8281 5.78171 13.4867 6.10619L6.23177 13.0015C6.06107 13.1637 5.97572 13.326 5.97572 13.5693C5.97572 13.8127 6.06107 13.9749 6.23177 14.1372C6.57318 14.4616 7.0853 14.4616 7.4267 14.1372L15.2791 6.67404C16.3033 5.70058 16.3033 4.15929 15.2791 3.26696C14.3402 2.37463 12.6332 2.37463 11.6943 3.26696L3.84191 10.7301C2.13487 12.3525 2.13487 14.8673 3.84191 16.4897C5.54896 18.1121 8.19487 18.1121 9.90192 16.4897L17.7543 9.02654C18.0957 8.70206 18.6078 8.70206 18.9492 9.02654C19.2907 9.35103 19.2053 9.83775 18.8639 10.1622Z" fill="white"/>
</mask>
<g mask="url(#mask0)">
<rect width="20" height="20" fill="#6E6B7B"/>
</g>
<path d="M2.91675 2.08333L17.0834 17.9167" stroke="#6E6B7B" stroke-width="2" stroke-linecap="round" stroke-linejoin="round"/>
</svg>
