<svg width="97" height="19" viewBox="0 0 97 19" fill="none" xmlns="http://www.w3.org/2000/svg">
<path d="M8.264 1.2C9.752 1.2 11.04 1.448 12.128 1.944C13.232 2.44 14.08 3.144 14.672 4.056C15.264 4.968 15.56 6.048 15.56 7.296C15.56 8.528 15.264 9.608 14.672 10.536C14.08 11.448 13.232 12.152 12.128 12.648C11.04 13.128 9.752 13.368 8.264 13.368H4.88V18H0.992V1.2H8.264ZM8.048 10.2C9.216 10.2 10.104 9.952 10.712 9.456C11.32 8.944 11.624 8.224 11.624 7.296C11.624 6.352 11.32 5.632 10.712 5.136C10.104 4.624 9.216 4.368 8.048 4.368H4.88V10.2H8.048ZM23.7637 18.192C22.4037 18.192 21.1797 17.912 20.0917 17.352C19.0197 16.776 18.1797 15.984 17.5717 14.976C16.9637 13.968 16.6597 12.824 16.6597 11.544C16.6597 10.264 16.9637 9.12 17.5717 8.112C18.1797 7.104 19.0197 6.32 20.0917 5.76C21.1797 5.184 22.4037 4.896 23.7637 4.896C25.1237 4.896 26.3397 5.184 27.4117 5.76C28.4837 6.32 29.3237 7.104 29.9317 8.112C30.5397 9.12 30.8437 10.264 30.8437 11.544C30.8437 12.824 30.5397 13.968 29.9317 14.976C29.3237 15.984 28.4837 16.776 27.4117 17.352C26.3397 17.912 25.1237 18.192 23.7637 18.192ZM23.7637 15.12C24.7237 15.12 25.5077 14.8 26.1157 14.16C26.7397 13.504 27.0517 12.632 27.0517 11.544C27.0517 10.456 26.7397 9.592 26.1157 8.952C25.5077 8.296 24.7237 7.968 23.7637 7.968C22.8037 7.968 22.0117 8.296 21.3877 8.952C20.7637 9.592 20.4517 10.456 20.4517 11.544C20.4517 12.632 20.7637 13.504 21.3877 14.16C22.0117 14.8 22.8037 15.12 23.7637 15.12ZM39.1577 18.192C37.7817 18.192 36.5417 17.912 35.4377 17.352C34.3497 16.776 33.4937 15.984 32.8697 14.976C32.2617 13.968 31.9577 12.824 31.9577 11.544C31.9577 10.264 32.2617 9.12 32.8697 8.112C33.4937 7.104 34.3497 6.32 35.4377 5.76C36.5417 5.184 37.7817 4.896 39.1577 4.896C40.5177 4.896 41.7017 5.184 42.7097 5.76C43.7337 6.32 44.4777 7.128 44.9417 8.184L42.0377 9.744C41.3657 8.56 40.3977 7.968 39.1337 7.968C38.1577 7.968 37.3497 8.288 36.7097 8.928C36.0697 9.568 35.7497 10.44 35.7497 11.544C35.7497 12.648 36.0697 13.52 36.7097 14.16C37.3497 14.8 38.1577 15.12 39.1337 15.12C40.4137 15.12 41.3817 14.528 42.0377 13.344L44.9417 14.928C44.4777 15.952 43.7337 16.752 42.7097 17.328C41.7017 17.904 40.5177 18.192 39.1577 18.192ZM52.1191 12.936L50.3191 14.712V18H46.5751V0.191999H50.3191V10.272L55.7911 5.088H60.2551L54.8791 10.56L60.7351 18H56.1991L52.1191 12.936ZM74.0758 11.592C74.0758 11.64 74.0518 11.976 74.0038 12.6H64.2358C64.4118 13.4 64.8278 14.032 65.4838 14.496C66.1398 14.96 66.9558 15.192 67.9318 15.192C68.6038 15.192 69.1958 15.096 69.7078 14.904C70.2358 14.696 70.7238 14.376 71.1718 13.944L73.1638 16.104C71.9478 17.496 70.1718 18.192 67.8358 18.192C66.3798 18.192 65.0918 17.912 63.9718 17.352C62.8518 16.776 61.9878 15.984 61.3798 14.976C60.7718 13.968 60.4678 12.824 60.4678 11.544C60.4678 10.28 60.7638 9.144 61.3558 8.136C61.9638 7.112 62.7878 6.32 63.8278 5.76C64.8838 5.184 66.0598 4.896 67.3558 4.896C68.6198 4.896 69.7638 5.168 70.7878 5.712C71.8118 6.256 72.6118 7.04 73.1878 8.064C73.7798 9.072 74.0758 10.248 74.0758 11.592ZM67.3798 7.728C66.5318 7.728 65.8198 7.968 65.2438 8.448C64.6678 8.928 64.3158 9.584 64.1878 10.416H70.5478C70.4198 9.6 70.0678 8.952 69.4918 8.472C68.9158 7.976 68.2118 7.728 67.3798 7.728ZM84.4678 17.376C84.0998 17.648 83.6438 17.856 83.0998 18C82.5718 18.128 82.0118 18.192 81.4198 18.192C79.8838 18.192 78.6918 17.8 77.8438 17.016C77.0118 16.232 76.5958 15.08 76.5958 13.56V8.256H74.6038V5.376H76.5958V2.232H80.3398V5.376H83.5558V8.256H80.3398V13.512C80.3398 14.056 80.4758 14.48 80.7478 14.784C81.0358 15.072 81.4358 15.216 81.9478 15.216C82.5398 15.216 83.0438 15.056 83.4598 14.736L84.4678 17.376ZM90.4849 18.192C89.4129 18.192 88.3649 18.064 87.3409 17.808C86.3169 17.536 85.5009 17.2 84.8929 16.8L86.1409 14.112C86.7169 14.48 87.4129 14.784 88.2289 15.024C89.0449 15.248 89.8449 15.36 90.6289 15.36C92.2129 15.36 93.0049 14.968 93.0049 14.184C93.0049 13.816 92.7889 13.552 92.3569 13.392C91.9249 13.232 91.2609 13.096 90.3649 12.984C89.3089 12.824 88.4369 12.64 87.7489 12.432C87.0609 12.224 86.4609 11.856 85.9489 11.328C85.4529 10.8 85.2049 10.048 85.2049 9.072C85.2049 8.256 85.4369 7.536 85.9009 6.912C86.3809 6.272 87.0689 5.776 87.9649 5.424C88.8769 5.072 89.9489 4.896 91.1809 4.896C92.0929 4.896 92.9969 5 93.8929 5.208C94.8049 5.4 95.5569 5.672 96.1489 6.024L94.9009 8.688C93.7649 8.048 92.5249 7.728 91.1809 7.728C90.3809 7.728 89.7809 7.84 89.3809 8.064C88.9809 8.288 88.7809 8.576 88.7809 8.928C88.7809 9.328 88.9969 9.608 89.4289 9.768C89.8609 9.928 90.5489 10.08 91.4929 10.224C92.5489 10.4 93.4129 10.592 94.0849 10.8C94.7569 10.992 95.3409 11.352 95.8369 11.88C96.3329 12.408 96.5809 13.144 96.5809 14.088C96.5809 14.888 96.3409 15.6 95.8609 16.224C95.3809 16.848 94.6769 17.336 93.7489 17.688C92.8369 18.024 91.7489 18.192 90.4849 18.192Z" fill="#7367F0"/>
</svg>
